<svg width="10" height="13" viewBox="0 0 10 13" fill="none" xmlns="http://www.w3.org/2000/svg">
<path d="M3.657 4.935H1.15C1.05024 4.63166 0.999603 4.31432 1 3.995V3.498C1 2.57027 1.36854 1.68054 2.02454 1.02454C2.68054 0.368538 3.57027 0 4.498 0H6C6.79565 0 7.55871 0.316071 8.12132 0.87868C8.68393 1.44129 9 2.20435 9 3C9 3.26522 8.89464 3.51957 8.70711 3.70711C8.51957 3.89464 8.26522 4 8 4C7.73478 4 7.48043 3.89464 7.29289 3.70711C7.10536 3.51957 7 3.26522 7 3C7 2.73478 6.89464 2.48043 6.70711 2.29289C6.51957 2.10536 6.26522 2 6 2H4.498C3.67 2 3 2.67 3 3.498V3.995C2.99986 4.20015 3.06283 4.40039 3.18036 4.56854C3.29789 4.7367 3.46429 4.86463 3.657 4.935V4.935ZM8.843 7.035C8.945 7.336 9 7.659 9 7.995V8.523C9 9.45868 8.6283 10.356 7.96667 11.0177C7.30504 11.6793 6.40768 12.051 5.472 12.051H4C3.20435 12.051 2.44129 11.7349 1.87868 11.1723C1.31607 10.6097 1 9.84665 1 9.051V9C1 8.73478 1.10536 8.48043 1.29289 8.29289C1.48043 8.10536 1.73478 8 2 8C2.26522 8 2.51957 8.10536 2.70711 8.29289C2.89464 8.48043 3 8.73478 3 9V9.05C3 9.31522 3.10536 9.56957 3.29289 9.75711C3.48043 9.94464 3.73478 10.05 4 10.05H5.472C6.316 10.05 7 9.367 7 8.523V7.995C7 7.77863 6.92982 7.5681 6.8 7.395C6.67018 7.2219 6.48772 7.09558 6.28 7.035H8.843ZM0.5 5.51H9.5C9.63261 5.51 9.75979 5.56268 9.85355 5.65645C9.94732 5.75021 10 5.87739 10 6.01C10 6.14261 9.94732 6.26978 9.85355 6.36355C9.75979 6.45732 9.63261 6.51 9.5 6.51H0.5C0.367392 6.51 0.240215 6.45732 0.146447 6.36355C0.0526785 6.26978 0 6.14261 0 6.01C0 5.87739 0.0526785 5.75021 0.146447 5.65645C0.240215 5.56268 0.367392 5.51 0.5 5.51V5.51Z" fill="black"/>
</svg>
