<svg width="14" height="14" viewBox="0 0 14 14" fill="none" xmlns="http://www.w3.org/2000/svg">
<path d="M7 0.25C5.66498 0.25 4.35994 0.645881 3.2499 1.38758C2.13987 2.12928 1.27471 3.18349 0.763816 4.41689C0.252925 5.65029 0.119252 7.00749 0.379702 8.31686C0.640153 9.62623 1.28303 10.829 2.22703 11.773C3.17104 12.717 4.37377 13.3599 5.68314 13.6203C6.99251 13.8808 8.34971 13.7471 9.58312 13.2362C10.8165 12.7253 11.8707 11.8601 12.6124 10.7501C13.3541 9.64007 13.75 8.33502 13.75 7C13.748 5.21041 13.0362 3.49469 11.7707 2.22926C10.5053 0.963825 8.78959 0.252018 7 0.25V0.25ZM7 12.25C5.96165 12.25 4.94662 11.9421 4.08326 11.3652C3.2199 10.7883 2.547 9.9684 2.14964 9.00909C1.75228 8.04978 1.64831 6.99418 1.85088 5.97578C2.05345 4.95738 2.55347 4.02191 3.28769 3.28769C4.02192 2.55346 4.95738 2.05345 5.97578 1.85088C6.99418 1.6483 8.04978 1.75227 9.00909 2.14963C9.9684 2.54699 10.7883 3.2199 11.3652 4.08326C11.9421 4.94661 12.25 5.96165 12.25 7C12.2484 8.3919 11.6948 9.72635 10.7106 10.7106C9.72635 11.6948 8.39191 12.2484 7 12.25V12.25ZM6.25 7.25V4C6.25 3.80109 6.32902 3.61032 6.46967 3.46967C6.61032 3.32902 6.80109 3.25 7 3.25C7.19892 3.25 7.38968 3.32902 7.53033 3.46967C7.67098 3.61032 7.75 3.80109 7.75 4V7.25C7.75 7.44891 7.67098 7.63968 7.53033 7.78033C7.38968 7.92098 7.19892 8 7 8C6.80109 8 6.61032 7.92098 6.46967 7.78033C6.32902 7.63968 6.25 7.44891 6.25 7.25ZM8 9.75C8 9.94778 7.94135 10.1411 7.83147 10.3056C7.72159 10.47 7.56541 10.5982 7.38269 10.6739C7.19996 10.7496 6.99889 10.7694 6.80491 10.7308C6.61093 10.6922 6.43275 10.597 6.2929 10.4571C6.15304 10.3173 6.0578 10.1391 6.01922 9.94509C5.98063 9.75111 6.00044 9.55004 6.07612 9.36732C6.15181 9.18459 6.27998 9.02841 6.44443 8.91853C6.60888 8.80865 6.80222 8.75 7 8.75C7.26513 8.7503 7.51931 8.85575 7.70678 9.04322C7.89425 9.23069 7.99971 9.48487 8 9.75Z" fill="black"/>
</svg>
